<svg width="317" height="332" viewBox="0 0 317 332" fill="none" xmlns="http://www.w3.org/2000/svg">
<path d="M155.23 303.956C237.207 303.956 303.663 237.5 303.663 155.523C303.663 73.5456 237.207 7.08984 155.23 7.08984C73.2526 7.08984 6.79688 73.5456 6.79688 155.523C6.79688 237.5 73.2526 303.956 155.23 303.956Z" fill="url(#paint0_linear_636_991)"/>
<path d="M26.1262 123.955L25.3516 123.821C25.3909 123.593 29.4723 100.839 45.2514 83.3887L45.8333 83.9156C30.2076 101.197 26.1655 123.731 26.1262 123.955Z" fill="white"/>
<path d="M47.6332 68.9678L46.9844 68.5274C47.1102 68.3426 59.7398 50.0234 80.0014 41.0859L80.3199 41.8055C60.2706 50.6486 47.759 68.7869 47.6332 68.9678Z" fill="white"/>
<path d="M294.996 152.829H294.21C294.21 124.609 281.403 99.0313 281.273 98.7758L281.973 98.4219C282.103 98.6775 294.996 124.416 294.996 152.829Z" fill="white"/>
<path d="M279.684 138.115C279.079 126.873 275.418 117.413 275.383 117.318L276.114 117.031C276.15 117.126 279.854 126.7 280.471 138.071L279.684 138.115Z" fill="white"/>
<path d="M1.45037 118.609L0.679688 118.444C0.726872 118.216 5.69299 95.5795 23.096 72.7031L23.7212 73.1789C6.42436 95.9177 1.49755 118.385 1.45037 118.609Z" fill="#191919"/>
<path d="M26.0313 55.3475L25.4297 54.8442C25.4769 54.7892 30.0891 49.2922 35.9714 43.7402L36.5101 44.3104C30.6592 49.8309 26.0745 55.2924 26.0313 55.3475Z" fill="#191919"/>
<path d="M45.4805 44.283L44.8828 43.7719C44.9497 43.6932 51.6891 35.9079 64.5507 27.1316C76.4135 19.0356 96.0657 8.41137 122.335 3.75195L122.473 4.52655C96.3409 9.16238 76.791 19.7316 64.995 27.7804C52.216 36.4977 45.5434 44.2044 45.4805 44.283Z" fill="#191919"/>
<path d="M303.288 104.934C296.67 77.9602 275.673 54.6749 275.461 54.4429L276.043 53.9121C276.255 54.1441 297.386 77.5828 304.051 104.745L303.288 104.934Z" fill="#191919"/>
<path d="M309.124 144.203C308.342 134.392 306.47 125.805 305.039 120.327L305.802 120.127C307.241 125.636 309.124 134.27 309.911 144.14L309.124 144.203Z" fill="#191919"/>
<path d="M313.384 181.282L312.617 181.105C313.293 178.179 313.883 175.006 314.371 171.676L315.149 171.79C314.658 175.14 314.06 178.333 313.384 181.282Z" fill="#191919"/>
<path d="M316.612 157.072L315.825 157.029C316.443 145.705 315.896 134.786 314.461 129.859L315.216 129.639C316.675 134.644 317.233 145.669 316.612 157.072Z" fill="#191919"/>
<path d="M304.231 192.897L303.484 192.657C304.865 188.364 306.036 182.387 306.968 174.904L307.747 175.003C306.811 182.532 305.627 188.552 304.231 192.897Z" fill="#191919"/>
<path d="M308.454 168.431L307.672 168.36C307.959 165.246 308.085 163.178 308.085 163.154L308.871 163.201C308.867 163.221 308.741 165.309 308.454 168.431Z" fill="#191919"/>
<path d="M228.836 20.2497C208.228 7.13255 173.713 2.62648 173.367 2.58323L173.465 1.80469C173.552 1.81648 182.293 2.94104 193.479 5.68164C203.813 8.21385 218.404 12.6806 229.261 19.5891L228.836 20.2497Z" fill="#191919"/>
<path d="M211.645 6.12999C206.116 3.69215 193.27 0.794263 193.141 0.766739L193.314 0C193.443 0.027524 206.364 2.94114 211.963 5.41437L211.645 6.12999Z" fill="#191919"/>
<path d="M44.3563 268.992C42.6891 267.674 41.0416 266.294 39.4609 264.894L39.9839 264.305C41.5567 265.697 43.1924 267.069 44.8478 268.374L44.3563 268.992Z" fill="#191919"/>
<path d="M31.0668 256.646C8.53247 232.071 4.21513 205.254 4.17188 204.987L4.95043 204.869C4.98975 205.137 9.27957 231.725 31.6448 256.115L31.0668 256.646Z" fill="#191919"/>
<path d="M37.2394 254.613C29.171 247.96 21.6294 232.779 21.5547 232.625L22.2585 232.279C22.3332 232.429 29.804 247.461 37.7388 254.008L37.2394 254.613Z" fill="#191919"/>
<path d="M115.392 305.098C103.923 302.904 92.5908 299.004 81.7109 293.503L82.0648 292.799C92.8818 298.264 104.143 302.141 115.542 304.324L115.392 305.098Z" fill="#191919"/>
<path d="M67.8195 285.401C62.181 281.626 59.0236 278.826 58.9922 278.799L59.5151 278.213C59.5466 278.24 62.6686 281.009 68.256 284.748L67.8195 285.401Z" fill="#191919"/>
<path d="M162.352 313.361L162.312 312.575C165.222 312.433 168.069 312.213 170.77 311.922L170.857 312.704C168.14 312.999 165.277 313.219 162.352 313.361Z" fill="#191919"/>
<path d="M152.018 313.542C134.018 313.345 118.935 310.648 118.781 310.62L118.923 309.846C119.072 309.873 134.096 312.563 152.026 312.755L152.018 313.542Z" fill="#191919"/>
<path d="M65.9846 261.954C41.1815 244.563 32.0436 216.976 31.9531 216.701L32.7002 216.457C32.7907 216.732 41.8539 244.075 66.4368 261.309L65.9846 261.954Z" fill="white"/>
<path d="M120.213 292.046C100.746 288.626 81.2552 275.595 81.0625 275.461L81.5029 274.809C81.6956 274.938 101.053 287.879 120.351 291.268L120.213 292.046Z" fill="white"/>
<path d="M88.186 268.409C83.0036 266.786 76.7478 260.986 76.4844 260.742L77.0191 260.168C77.082 260.227 83.4086 266.09 88.418 267.662L88.186 268.409Z" fill="white"/>
<path d="M186.864 28.3694C182.912 30.7758 165.726 40.8338 153.32 50.2942C151.346 51.8002 149.876 53.8645 149.101 56.2237C147.493 61.1348 146.05 66.5884 145.641 68.1691C145.547 68.5348 145.594 68.9241 145.782 69.2504C146.942 71.2951 153.3 78.3333 187.941 90.5854L196.073 72.9976C196.073 72.9976 190.938 40.2716 189.361 29.3406C189.2 28.2436 187.937 27.7167 186.864 28.3694Z" fill="white"/>
<path d="M265.107 225.064L222.464 230.074C215.548 230.888 209.5 235.123 206.374 241.347L187.289 279.696C186.475 281.316 184.666 282.177 182.896 281.787L176.114 280.293C171.356 279.243 166.602 282.067 165.246 286.746L164.184 290.414C163.594 292.447 164.522 294.61 166.402 295.585L197.712 311.812C199.788 312.886 202.34 312.166 203.547 310.165L235.015 258.919L278.507 256.178L265.107 225.064Z" fill="#1EB8CD"/>
<path d="M240.977 192.317L244.087 184.516L269.814 185.896L260.467 221.217L240.977 192.317Z" fill="#1EB8CD"/>
<path d="M237.726 173.465C237.726 173.465 240.553 166.148 240.509 162.173C240.454 156.884 241.028 146.122 237.659 146.629C235.606 146.936 234.993 151.914 234.741 154.053C234.643 154.898 234.316 155.708 233.75 156.345C232.944 157.254 231.8 157.604 231.198 153.487C230.219 146.779 230.432 133.87 226.535 136.233C224.561 137.432 225.619 149.154 224.502 148.635C223.386 148.116 223.523 130.414 218.773 132.344C217.204 132.981 217.558 141.439 217.881 146.169C217.9 146.433 217.515 146.488 217.456 146.228C216.815 143.37 215.832 139.206 215.046 136.764C214.2 134.133 212.234 135.51 212.234 137.428C212.234 141.557 212.934 150.251 212.934 150.251L237.726 173.465Z" fill="#1EB8CD"/>
<path d="M303.766 196.949L310.843 209.138L294.329 262.22C292.78 267.603 286.622 270.961 281.094 270.041L259.837 267.682C257.108 267.225 256.129 268.625 257.085 271.22L266.258 313.312C267.815 317.547 265.401 322.203 261.04 323.37L229.411 331.824C226.348 332.642 223.289 330.503 223.01 327.346L221.19 316.482C221.115 315.652 220.879 312.322 222.762 310.977C225.515 309.011 229.84 306.258 229.84 306.258C231.299 305.476 231.448 303.136 231.02 301.54L219.003 254.812C217.041 247.503 221.591 241.836 229.058 240.594C238.494 239.021 254.222 235.482 254.222 235.482L260.958 191.542C261.843 188.055 265.063 185.668 268.661 185.841L278.994 186.332L303.766 196.949Z" fill="white"/>
<path d="M299.704 185.398C301.853 176.3 296.219 167.183 287.121 165.034C278.022 162.886 268.905 168.52 266.757 177.618C264.609 186.716 270.243 195.833 279.341 197.982C288.439 200.13 297.556 194.496 299.704 185.398Z" fill="white"/>
<path d="M129.502 181.277L185.753 130.389C188.659 127.759 192.909 127.967 196.35 129.843C203.306 133.637 215.235 140.42 225.875 151.948C234.809 161.629 249.652 176.999 251.406 190.01C251.606 191.5 251.087 192.995 250.045 194.076C232.894 211.845 198.005 244.571 194.105 247.897C184.872 255.773 160.93 237.992 147.29 222.139C141.593 215.521 122.373 188.001 129.502 181.277Z" fill="white"/>
<path d="M312.769 200.064C307.547 194.924 298.622 195.231 293.117 199.95L273.602 217.722C272.533 218.611 270.948 218.473 270.048 217.416L256.223 201.255C253.997 198.648 252.653 195.408 252.377 191.995L251.878 185.834C251.843 185.417 251.744 185.008 251.579 184.623L249.059 178.135C248.713 177.242 247.51 177.132 246.987 177.934C246.279 179.023 245.894 180.663 245.894 182.291C245.894 185.437 246.633 188.834 245.453 188.834C243.88 188.834 242.013 185.743 241.214 182.841C240.298 179.503 239.842 176.841 238.226 175.363C237.495 174.694 236.193 175.135 235.993 176.247C235.525 178.811 236.064 183.64 236.107 186.38C236.119 187.167 235.415 187.151 235.199 186.195C234.534 183.235 232.721 174.187 232.721 174.187C232.434 172.996 230.791 172.858 230.315 173.991C228.955 177.242 229.462 184.316 229.709 186.946C229.733 187.178 229.418 187.273 229.312 187.068C228.656 185.842 227.496 183.427 226.666 180.352C226.481 179.668 225.545 179.519 225.199 180.136C224.157 182.012 224.688 186.49 224.967 188.331C224.995 188.504 224.759 188.582 224.673 188.433C224.22 187.638 223.874 186.887 223.524 185.991C223.072 184.831 222.101 185.496 222.018 186.231C221.743 188.712 221.602 192.259 222.655 196.804C223.037 198.444 224.417 203.363 230.602 210.759L263.631 247.326C269.529 254.797 277.086 252.827 281.325 249.685C291.941 241.821 311.538 222.448 311.538 222.448C318.993 216.157 317.432 204.652 312.769 200.064Z" fill="white"/>
<path d="M165.06 211.62C145.321 190.521 135.031 184.438 130.006 183.875C128.893 183.75 127.93 184.619 127.938 185.739C127.997 196.017 142.474 216.546 147.287 222.146C158.273 234.921 175.955 248.946 187.24 249.791C188.105 249.854 188.805 249.103 188.707 248.246C188.022 242.215 183.257 231.071 165.06 211.62Z" fill="#191919"/>
<path d="M145.961 69.5372C147.522 73.2962 165.46 84.8603 187.943 90.5892L188.611 89.1461C179.886 81.4984 164.803 73.8231 153.605 70.9331C149.5 69.8754 147.262 69.3839 145.961 69.5372Z" fill="#191919"/>
<path d="M189.009 35.9452C186.948 34.2269 184.499 33.0867 181.734 32.5558L181.884 31.7852C184.782 32.3435 187.345 33.5388 189.512 35.3397L189.009 35.9452Z" fill="#191919"/>
<path d="M219.072 166.371L210.748 159.399C209.442 158.306 207.748 157.799 206.057 158.003C199.314 158.813 181.682 161.184 175.773 164.432C173.583 165.635 168.841 170.889 168.841 170.889C167.122 172.67 167.114 175.489 168.825 177.282L179.646 189.239C180.397 190.069 181.663 190.163 182.528 189.455L191.178 182.37C192.114 181.603 192.208 180.204 191.383 179.315L189.641 177.451C188.945 176.798 189.267 175.631 190.203 175.43L218.333 169.391C219.732 169.08 220.177 167.295 219.072 166.371ZM206.108 178.564C204.755 177.604 203.073 177.522 201.799 178.576L175.666 200.158C174.094 201.456 173.995 204.613 175.328 206.159C176.362 207.358 178.446 209.749 179.457 210.975C181.325 213.244 184.392 213.315 185.898 211.943L192.952 205.514C193.592 204.932 194.583 204.971 195.173 205.604L196.667 207.208C197.725 208.317 199.471 208.372 200.595 207.334L208.385 200.139C209.859 198.774 209.871 196.447 208.404 195.07L207.685 194.394C207.012 193.765 207.02 192.692 207.7 192.074L211.286 188.807C212.623 187.588 213.099 184.855 211.412 183.263C211.416 183.263 207.858 179.81 206.108 178.564Z" fill="#1EB8CD"/>
<path d="M149.145 71.6418C154.103 75.5463 167.063 82.6475 183.07 87.8416L183.597 86.7367C176.983 81.1179 161.92 74.1386 149.467 70.9851C149.078 70.8868 148.826 71.3941 149.145 71.6418Z" fill="#191919"/>
<path d="M131.304 187.961C133.554 185.114 153.426 203.653 160.161 210.523C171.69 222.275 188.433 245.022 184.398 246.084C181.886 246.744 166.343 238.039 149.934 219.492C137.45 205.376 129.917 189.718 131.304 187.961Z" fill="#191919"/>
<path d="M264.084 23.9174L263.502 20.3864C263.018 17.4492 260.113 16.0101 257.305 17.0088C253.625 18.3142 248.851 19.8635 246.264 21.8766C245.238 22.6748 244.679 23.9331 244.786 25.2267C245.733 36.7199 246.818 45.677 247.334 49.6326C247.514 51.0364 247.05 52.4479 246.067 53.4663L234.586 65.4078L246.229 71.3609L268.024 51.0521L264.084 23.9174Z" fill="#1EB8CD"/>
<path d="M187.938 90.5884L196.265 72.5759C197.708 69.4578 200.752 67.3935 204.181 67.2009L221.438 66.2454C225.685 66.0095 229.817 64.7827 233.505 62.6633C236.525 60.9293 240.241 60.945 243.245 62.7105C245.219 63.8705 247.712 63.6542 249.458 62.1718L255.69 56.8794C256.405 56.2699 256.791 55.3616 256.732 54.4258C256.401 49.4164 255.352 33.0121 255.218 25.0144C255.198 23.9017 255.823 22.8754 256.822 22.3878C260.97 20.3629 267.466 19.3759 272.444 20.2252C273.675 20.4336 274.638 21.4442 274.717 22.6906C275.051 28.1482 271.323 33.9951 271.323 33.9951L274.607 58.6763C275.33 64.1182 273.006 69.5168 268.559 72.7332L247.826 87.722C246.253 88.8583 244.617 89.9121 242.927 90.8676C238.912 93.1442 234.618 94.89 230.155 96.0578L214.266 100.214L187.938 90.5884Z" fill="white"/>
<path d="M195.084 74.4061L204.737 72.9434L212.239 80.9135L197.699 94.7502L190.008 86.0605L195.084 74.4061Z" fill="#1EB8CD"/>
<path d="M218.703 69.8937C220.592 62.6662 216.265 55.2757 209.037 53.3865C201.81 51.4972 194.419 55.8247 192.53 63.0522C190.641 70.2796 194.968 77.6702 202.196 79.5594C209.423 81.4486 216.814 77.1211 218.703 69.8937Z" fill="white"/>
<path d="M170.987 61.5115L173.546 57.5598C173.979 56.8914 173.715 55.9949 172.988 55.6685L171.918 55.1888C171.274 54.8978 171.191 54.0171 171.773 53.6121L183.203 45.6891C183.781 45.288 183.652 44.3994 182.983 44.1753L177.75 42.4491C177.128 42.2447 176.452 42.3351 175.906 42.6968L164.652 50.148C163.96 50.6041 163.402 51.2332 163.024 51.9685L161.444 55.0512C160.645 56.6083 161.33 58.5153 162.934 59.2073L169.378 61.9951C169.964 62.2507 170.645 62.0423 170.987 61.5115ZM184.501 59.7657L183.919 59.4039C183.4 59.0815 183.203 58.4248 183.455 57.8704L184.226 56.1797C184.678 55.1888 184.292 54.0171 183.341 53.4863L180.758 52.0471C179.743 51.4849 178.465 51.8505 177.911 52.8689L170.106 67.0949C169.587 68.0425 169.874 69.23 170.77 69.8355L173.535 71.6954C174.553 72.3795 175.941 72.0414 176.535 70.9679L178.772 66.8904C179.106 66.2849 179.877 66.0804 180.467 66.4383L180.773 66.627C181.446 67.0399 182.326 66.7882 182.68 66.0844L184.988 61.5233C185.311 60.8981 185.095 60.1353 184.501 59.7657Z" fill="#1EB8CD"/>
<path d="M228.735 73.2533C224.952 69.8757 219.184 70.0762 215.641 73.7015L205.111 84.4831C204.289 85.3245 203.078 85.6588 201.942 85.3599L186.289 81.251C185.207 80.9679 184.228 80.386 183.461 79.572L178.967 74.8064C178.594 74.4093 177.921 74.4801 177.681 74.9676C177.434 75.467 177.28 76.2849 177.536 77.61C178.102 80.559 176.392 80.5511 174.654 79.1592C173.757 78.4435 172.369 77.3269 171.237 76.4107C170.376 75.7147 169.106 76.336 169.102 77.4409C169.094 78.7856 169.287 80.327 170.061 81.1881C168.481 85.9301 171.135 91.5607 175.338 93.8334C180.19 96.456 206.342 104.536 206.342 104.536C208.882 105.287 211.63 104.583 213.498 102.708L229.136 87.0035C232.973 83.158 232.788 76.8747 228.735 73.2533Z" fill="white"/>
<path d="M197.438 57.5084C195.763 58.7234 194.458 60.4731 193.683 62.5571C191.937 67.2558 193.585 72.3045 197.265 75.3204C199.247 76.9443 202.271 77.3296 205.275 75.4737C207.229 74.2666 208.707 72.3242 209.565 70.02C211.067 65.9819 210.052 61.7943 207.37 58.7942C205.169 56.3367 200.23 55.4795 197.438 57.5084Z" fill="#191919"/>
<path d="M99.5224 209.816C98.0204 204.091 96.3493 196.715 95.4685 194.21C95.4332 194.112 95.3113 193.84 95.2208 193.781C94.4305 193.255 89.7907 191.033 84.4196 191.929C82.7564 192.209 77.0471 191.678 74.7626 193.412C74.0548 193.947 73.7875 194.851 73.7246 195.736C73.4022 200.505 72.6079 215.242 72.7416 220.216C72.7652 221.109 73.3786 221.911 74.2554 222.088C83.932 224.058 95.1854 223.15 100.199 219.363C100.753 218.942 101.064 218.278 101.001 217.582C100.875 216.249 100.529 213.65 99.5224 209.816Z" fill="white"/>
<path d="M44.2231 171.623L28.2356 166.625C27.4059 166.365 26.8869 165.54 27.0088 164.679L29.4781 147.405C29.6511 146.186 28.8057 145.058 27.5868 144.881L17.5995 143.355C17.1316 143.289 16.125 143.639 16.125 144.983C16.125 145.64 16.3059 146.006 16.6401 146.407L18.4449 148.581C18.783 148.986 18.9285 149.521 18.842 150.04L16.707 163.251L24.0165 178.818L41.7774 180.717L44.2231 171.623Z" fill="#1EB8CD"/>
<path d="M12.6375 149.339L26.5332 171.196C26.9068 171.786 27.5044 172.203 28.1847 172.356L31.2988 173.048C32.3329 173.277 33.4142 173.096 34.3147 172.545L35.5178 171.81C37.9046 170.347 40.8103 170.005 43.4723 170.874L62.5346 177.091L56.963 194.466L38.168 189.881C36.5362 189.484 34.932 188.997 33.3552 188.419C31.0118 187.561 27.5831 186.252 25.4952 185.226C20.1123 182.58 18.3468 180.519 17.4699 178.876C14.6822 173.65 7.79331 161.807 6.92434 160.407C5.79586 158.591 3.31475 158.433 1.99753 158.091C1.18361 157.879 0.585948 157.521 0.25566 156.746L0.086587 156.353C-0.113945 155.885 0.0433398 155.343 0.460132 155.052L9.59023 148.674C10.6047 147.966 12.0084 148.269 12.6375 149.339Z" fill="white"/>
<path d="M71.0433 188.983L87.8644 188.971C89.2367 188.963 90.6522 189.372 91.3757 190.202C91.8082 190.697 92.5789 191.766 92.9878 192.282C93.2709 192.643 93.1687 193.111 92.7598 193.013L90.7191 192.282L91.0808 193.532C91.3285 194.208 90.7112 194.515 90.1882 194.251L88.1554 193.292C88.2065 193.858 87.6088 194.259 87.1016 193.996C86.1658 193.508 85.808 193.194 84.5144 192.313C84.1919 192.097 83.8105 191.987 83.4213 192.006C79.9532 192.179 77.5075 192.612 75.3921 193.477C73.8233 194.118 73.7839 195.75 73.7564 196.261C73.7092 197.122 72.5454 199.701 72.5454 199.701L61.5947 197.448L59.6562 190.158L71.0433 188.983Z" fill="#1EB8CD"/>
<path d="M64.6425 190.926C69.4113 190.926 73.2772 186.899 73.2772 181.93C73.2772 176.961 69.4113 172.934 64.6425 172.934C59.8737 172.934 56.0078 176.961 56.0078 181.93C56.0078 186.899 59.8737 190.926 64.6425 190.926Z" fill="white"/>
<path d="M68.4002 203.17C68.4002 203.17 63.0881 212.552 62.2899 218.096C62.0343 219.881 63.3358 221.521 65.1288 221.733C66.7173 221.918 69.1748 222.009 72.8748 221.714C72.3401 220.043 73.559 205.188 74.082 199.183C74.1527 198.377 73.1579 197.945 72.6114 198.543L68.4002 203.17Z" fill="white"/>
<path d="M86.5358 198.7C87.6721 201.068 91.962 210.099 92.8781 213.725C92.9921 214.173 92.6383 214.598 92.1782 214.57C87.9828 214.291 83.9328 214.904 82.2067 215.219C81.7663 215.297 81.3731 214.94 81.4085 214.495L82.5802 200.029C82.5999 199.774 82.765 199.55 83.0009 199.455L85.6629 198.37C85.9971 198.233 86.3785 198.378 86.5358 198.7Z" fill="white"/>
<path d="M91.8863 210.802C89.9439 205.722 86.2518 198.125 86.2518 198.125L85.3828 198.479L89.5035 214.498C90.6478 214.486 91.8431 214.557 93.0384 214.671C92.9834 213.908 92.5312 212.496 91.8863 210.802Z" fill="#1EB8CD"/>
<path d="M93.0462 214.671C93.0423 214.604 89.8731 212.033 89.8731 212.033C89.3305 211.62 88.5991 211.565 88.0054 211.891L81.8125 215.284C83.3067 214.997 88.1745 214.199 93.0462 214.671Z" fill="#1EB8CD"/>
<path d="M61.72 184.572C61.5745 186.141 61.9245 187.615 62.6205 188.854C63.0884 189.684 63.9691 190.218 64.9246 190.218C64.9286 190.218 64.9364 190.218 64.9403 190.218C69.2419 190.218 72.7296 186.585 72.7296 182.103C72.7296 182.095 72.7296 182.083 72.7296 182.075C72.7218 180.184 71.3692 178.576 69.5801 178.277C69.0335 178.187 68.4634 178.163 67.8776 178.214C64.6455 178.509 62.0307 181.21 61.72 184.572Z" fill="#191919"/>
<path d="M89.5713 199.847L87.7154 200.064C87.566 200.079 87.4912 199.891 87.6092 199.8L89.1663 198.624C89.7757 198.164 89.4101 197.197 88.6512 197.256C86.9644 197.386 84.79 197.567 83.2368 197.732C82.9812 197.759 82.8672 197.413 83.0913 197.284C83.7873 196.887 84.153 196.694 84.8765 196.289C85.9106 195.707 84.8922 194.889 83.7087 194.932C81.4949 195.019 79.2891 196.352 77.6101 196.352C74.5746 196.352 66.1719 195.943 66.1719 195.943C65.5074 195.919 64.8901 195.581 64.5166 195.031L57.6906 184.929C55.7797 182.405 52.174 181.937 49.6851 183.891C47.3219 185.743 46.8147 189.121 48.533 191.586L58.5281 204.393C59.4522 205.576 60.8559 206.292 62.3579 206.343L84.1215 206.013C86.7166 206.017 88.5411 203.665 88.7731 202.442C89.4415 201.99 89.9173 201.495 90.2594 201.047C90.6565 200.52 90.2319 199.769 89.5713 199.847Z" fill="white"/>
<path d="M62.7936 106.8C62.7936 106.8 64.6416 113.744 69.3011 123.157C75.9068 136.498 79.1311 141.842 82.5283 147.571C86.6648 154.546 99.2944 161.62 123.661 146.525C148.908 130.887 145.059 120.586 143.384 117C142.393 114.876 134.352 99.8482 127.679 88.4414C125.076 83.9904 122.619 80.1882 120.983 77.7346C119.623 75.6939 117.437 74.3688 114.999 74.0936C108.354 73.3426 94.2771 73.4173 79.8034 83.9039C59.8485 98.3658 62.7936 106.8 62.7936 106.8Z" fill="white"/>
<path d="M144.401 124.636C145.066 121.282 143.619 117.853 140.8 115.911C133.651 110.98 119.649 110.768 101.896 121.982C82.3898 134.305 81.9376 144.732 84.8395 150.509C90.5251 156.12 102.785 159.458 123.66 146.525C138.621 137.262 143.363 129.87 144.401 124.636Z" fill="#191919"/>
<path d="M88.4917 150.128C86.0657 146.656 86.0185 135.78 104.228 124.067C122.582 112.259 138.684 115.617 141.051 121.983C143.418 128.349 130.23 140.007 115.54 147.47C102.25 154.225 91.1812 153.977 88.4917 150.128Z" fill="#191919"/>
<path d="M72.7162 219.19C71.1159 219.186 69.4291 219.272 67.7423 219.406C63.944 219.709 63.4328 220.904 63.7906 221.27C64.1248 221.612 64.632 221.796 65.1235 221.852C66.7121 222.036 69.9914 222.143 73.483 221.734C72.7162 220.888 72.7202 220.479 72.7162 219.19Z" fill="#191919"/>
<path d="M99.4315 195.778C98.2952 194.374 97.6464 194.547 95.5703 194.516C96.4511 197.559 97.9846 203.972 99.518 209.819C101.052 215.662 101.059 218.635 101.059 218.635C102.986 218.379 104.539 218.092 108.31 217.459C111.389 216.94 111.664 214.392 110.072 212.033L99.4315 195.778Z" fill="white"/>
<path d="M99.5529 219.814C99.7731 219.256 99.4113 218.698 98.4873 218.241C96.6511 217.329 93.0572 216.614 86.0543 217.007C79.598 217.369 76.3226 218.965 74.6751 220.373C73.7944 221.128 73.8533 221.709 74.6319 222.181C84.3361 224.537 94.3744 223.223 99.5529 219.814Z" fill="#191919"/>
<path d="M108.713 217.53C109.491 217.33 109.613 216.496 109.208 216.205C109.035 216.083 108.831 215.958 108.587 215.832C106.672 214.849 103.613 214.861 100.688 215.211C101.057 217.483 101.124 218.03 100.707 218.8C103.09 218.635 108.481 217.589 108.713 217.53Z" fill="#191919"/>
<path d="M86.048 104.5C84.9038 101.622 84.8684 98.4137 86.217 96.3101C86.5316 95.8186 87.1096 95.0164 86.8187 94.5131L84.2864 90.8406C83.7517 89.9127 82.3558 90.4946 81.7149 91.3558C78.5575 95.6141 77.3779 101.162 79.7371 107.084C83.2012 115.793 89.634 118.341 96.2633 116.721C97.3367 116.458 97.8597 115.243 97.3053 114.287L95.3708 111.083C94.9461 110.347 94.1322 109.942 93.2829 110.009C90.4204 110.241 87.5893 108.37 86.048 104.5ZM104.933 94.2261C99.9201 86.2874 91.9538 85.0763 86.7361 87.0581C85.8239 87.4041 85.411 88.4618 85.8986 89.3072L88.7453 93.1645C89.0835 93.7464 89.7519 94.0295 90.4086 93.9037C93.1924 93.365 96.6133 94.4424 98.8663 97.8475C100.655 100.553 100.651 104.787 97.8125 107.508C97.1913 108.106 97.2542 109.132 97.6867 109.879L99.5033 113.013C100.223 114.252 101.831 114.37 102.928 113.454C108.071 109.16 108.449 99.7938 104.933 94.2261Z" fill="#1EB8CD"/>
<path d="M217.247 93.6704C216.976 93.6704 216.701 93.5997 216.449 93.4542C214.522 92.3336 211.046 90.1434 209.415 88.1106C208.954 87.5365 208.966 86.699 209.45 86.1171L214.558 79.9596C215.096 79.3068 216.052 79.1928 216.732 79.6961C218.336 80.8875 221.258 83.0894 222.811 84.4656C223.436 85.02 223.534 85.9401 223.039 86.6086C221.254 89.0228 219.473 91.6337 218.572 92.9705C218.262 93.4227 217.758 93.6704 217.247 93.6704ZM215.78 80.1679C215.548 80.1679 215.316 80.2662 215.159 80.4589L210.052 86.6164C209.808 86.9113 209.796 87.3281 210.028 87.6152C211.64 89.6244 215.332 91.8932 216.846 92.7739C217.212 92.9863 217.68 92.8801 217.916 92.5302C218.824 91.1854 220.609 88.5667 222.402 86.1367C222.65 85.7986 222.602 85.3307 222.284 85.0515C220.754 83.695 217.853 81.5088 216.256 80.3252C216.115 80.2191 215.946 80.1679 215.78 80.1679Z" fill="#191919"/>
<path d="M291.564 233.65C291.466 233.65 291.368 233.646 291.265 233.635C290.448 233.556 289.712 233.159 289.197 232.522L280.724 222.004C279.717 220.753 279.863 218.933 281.05 217.855L290.416 209.39C291.033 208.832 291.828 208.556 292.653 208.615C293.483 208.674 294.23 209.056 294.765 209.689L303.73 220.372C304.803 221.65 304.634 223.561 303.36 224.634L293.507 232.931C292.956 233.403 292.276 233.65 291.564 233.65ZM281.581 218.441C280.7 219.24 280.594 220.584 281.337 221.512L289.811 232.03C290.192 232.502 290.735 232.797 291.34 232.856C291.946 232.915 292.535 232.73 292.999 232.341L302.853 224.044C303.797 223.25 303.919 221.835 303.128 220.887L294.163 210.204C293.77 209.732 293.212 209.449 292.598 209.41C291.985 209.37 291.395 209.571 290.943 209.984L281.581 218.441Z" fill="#191919"/>
<path d="M245.272 215.205L244.659 214.714L249.074 209.174C249.334 208.847 249.243 208.505 249.07 208.293C248.897 208.081 248.579 207.923 248.205 208.112L243.216 210.68C242.563 211.014 241.824 210.853 241.368 210.283C240.912 209.712 240.927 208.954 241.399 208.395L245.838 203.154C246.114 202.828 246.023 202.478 245.85 202.261C245.673 202.045 245.355 201.88 244.977 202.08L232.116 208.627L231.758 207.927L244.615 201.381C245.26 201.038 246.007 201.196 246.464 201.766C246.924 202.34 246.912 203.099 246.44 203.661L242.001 208.902C241.725 209.225 241.812 209.575 241.985 209.791C242.158 210.007 242.476 210.173 242.854 209.98L247.84 207.412C248.481 207.082 249.216 207.235 249.672 207.79C250.128 208.344 250.132 209.099 249.684 209.661L245.272 215.205Z" fill="#191919"/>
<path d="M266.685 223.359L260.945 238.836L261.683 239.109L267.422 223.633L266.685 223.359Z" fill="#191919"/>
<path d="M275.687 226.721L274.945 226.982L281.565 245.791L282.307 245.53L275.687 226.721Z" fill="#191919"/>
<path d="M275.411 239.743L274.633 239.857L275.998 249.104L276.776 248.989L275.411 239.743Z" fill="#191919"/>
<path d="M266.562 236.178L265.148 243.586L265.921 243.733L267.335 236.325L266.562 236.178Z" fill="#191919"/>
<path d="M203.629 87.6679L202.938 88.043L210.072 101.189L210.763 100.814L203.629 87.6679Z" fill="#191919"/>
<path d="M203.67 94.6538L202.914 94.8711L205.117 102.535L205.873 102.318L203.67 94.6538Z" fill="#191919"/>
<path d="M200.111 88.9148L199.43 100.432L200.215 100.478L200.897 88.9613L200.111 88.9148Z" fill="#191919"/>
<path d="M179.329 93.3813L178.57 93.1768L180.591 85.6195C180.717 85.1437 181.146 84.8488 181.637 84.9C182.125 84.9511 182.483 85.3325 182.51 85.82L182.734 90.3458C182.742 90.4716 182.829 90.5109 182.884 90.5227C182.939 90.5345 183.033 90.5384 183.092 90.4244L186.01 84.668L186.71 85.0218L183.796 90.7783C183.591 91.1794 183.163 91.3838 182.723 91.2895C182.282 91.1951 181.975 90.8333 181.952 90.3851L181.728 85.8594C181.72 85.7178 181.618 85.6864 181.559 85.6824C181.5 85.6746 181.393 85.6864 181.358 85.82L179.329 93.3813Z" fill="#191919"/>
<path d="M260.171 53.8094L260.047 54.5859L271.556 56.4203L271.679 55.6438L260.171 53.8094Z" fill="#191919"/>
<path d="M260.958 57.33L260.672 58.0625L271.477 62.2824L271.763 61.5498L260.958 57.33Z" fill="#191919"/>
<path d="M261.112 60.3679L260.516 60.8809L268.156 69.7596L268.752 69.2467L261.112 60.3679Z" fill="#191919"/>
<path d="M249.401 271.182L249.358 271.178L226.875 268.606L226.965 267.824L249.425 270.392C249.968 270.384 250.262 270.01 250.361 269.664C250.459 269.314 250.392 268.834 249.913 268.551L224.04 256.339C223.234 255.859 222.931 254.958 223.269 254.125C223.607 253.291 224.457 252.855 225.33 253.067L245.851 257.632C246.441 257.774 246.83 257.428 246.987 257.086C247.14 256.751 247.156 256.244 246.7 255.89L229.509 247.393L229.859 246.689L247.14 255.238C247.95 255.831 248.005 256.759 247.703 257.416C247.4 258.073 246.657 258.631 245.678 258.399L225.157 253.834C224.539 253.685 224.15 254.058 224.001 254.424C223.851 254.785 223.871 255.324 224.41 255.647L250.282 267.859C251.021 268.3 251.336 269.082 251.12 269.876C250.895 270.671 250.223 271.182 249.401 271.182Z" fill="#191919"/>
<path d="M55.7715 196.989C55.6889 196.989 55.6063 196.985 55.5238 196.974C55.0323 196.903 54.5958 196.624 54.3245 196.207L52.2641 193.049C51.749 192.263 51.9653 191.193 52.7478 190.671L55.4962 188.826C56.2826 188.3 57.3521 188.508 57.883 189.286L59.79 192.078C60.2894 192.81 60.1557 193.793 59.4833 194.367L56.8921 196.576C56.5776 196.848 56.1804 196.989 55.7715 196.989ZM56.4596 189.326C56.2787 189.326 56.0979 189.377 55.9366 189.483L53.1882 191.327C52.7635 191.614 52.6455 192.192 52.9247 192.625L54.9851 195.782C55.1345 196.01 55.3704 196.16 55.6378 196.199C55.9091 196.238 56.1765 196.16 56.3809 195.983L58.9721 193.773C59.3378 193.458 59.4125 192.924 59.1373 192.526L57.2303 189.735C57.0573 189.467 56.7584 189.326 56.4596 189.326Z" fill="#191919"/>
<path d="M63.2189 197.289L58.9141 201.801L59.483 202.344L63.7878 197.832L63.2189 197.289Z" fill="#191919"/>
<path d="M61.9053 201.423L60.7578 203.742L61.4627 204.091L62.6101 201.772L61.9053 201.423Z" fill="#191919"/>
<path d="M65.058 197.203L63.4531 204.861L64.2228 205.023L65.8276 197.365L65.058 197.203Z" fill="#191919"/>
<path d="M74.0045 203.386C73.9849 203.386 73.9691 203.386 73.9495 203.386C73.4265 203.363 72.9822 203.029 72.8171 202.533L72.1172 200.418L72.8643 200.17L73.5642 202.285C73.6585 202.565 73.9062 202.6 73.981 202.6C74.0557 202.6 74.3073 202.592 74.4253 202.321L75.1055 200.728C75.2706 200.343 75.6127 200.068 76.0256 199.993C76.4385 199.918 76.8552 200.048 77.1462 200.347L79.2026 202.455C79.3835 202.639 79.6037 202.62 79.7531 202.537C79.9025 202.455 80.0402 202.278 79.9812 202.026L79.0257 197.937L79.7924 197.76L80.7479 201.849C80.8777 202.4 80.63 202.954 80.1345 203.225C79.6352 203.497 79.0375 203.406 78.6404 203.001L76.5839 200.894C76.4738 200.78 76.3205 200.732 76.1711 200.764C76.0177 200.791 75.8919 200.894 75.8329 201.035L75.1527 202.628C74.9521 203.095 74.5078 203.386 74.0045 203.386Z" fill="#191919"/>
<path d="M23.3185 171.861L17.6875 173.793L17.9428 174.537L23.5737 172.604L23.3185 171.861Z" fill="#191919"/>
<path d="M21.7618 174.369L18.7344 176.891L19.2377 177.495L22.2651 174.973L21.7618 174.369Z" fill="#191919"/>
<path d="M24.0018 174.522L21.6484 180.576L22.3814 180.861L24.7348 174.806L24.0018 174.522Z" fill="#191919"/>
<path d="M2.91244 156.878C2.82594 156.878 2.73551 156.87 2.649 156.851L1.96875 156.701L2.13782 155.934L2.81808 156.084C2.9439 156.111 3.07365 156.084 3.17588 156.013C3.28204 155.938 3.3489 155.828 3.36463 155.699L3.4354 155.148C3.48259 154.798 3.67525 154.484 3.96621 154.283C4.25718 154.083 4.62285 154.02 4.96493 154.102L6.31754 154.436C6.46303 154.472 6.61245 154.436 6.72255 154.338C6.83658 154.24 6.89163 154.098 6.87984 153.949L6.81298 153.194C6.77759 152.793 6.93094 152.407 7.2337 152.144C7.53647 151.881 7.93752 151.778 8.33072 151.873L9.21542 152.081C9.36091 152.117 9.5064 152.077 9.62043 151.979C9.73053 151.881 9.78951 151.739 9.77379 151.59C9.73053 151.157 9.9114 150.744 10.2574 150.481C10.6034 150.217 11.0517 150.154 11.4567 150.312L12.4711 150.701L12.188 151.436L11.1736 151.047C11.0242 150.988 10.863 151.012 10.7332 151.11C10.6034 151.208 10.5405 151.358 10.5562 151.519C10.5956 151.924 10.4422 152.305 10.1395 152.573C9.83669 152.84 9.4317 152.942 9.0385 152.848L8.1538 152.639C8.00832 152.608 7.86282 152.643 7.7488 152.738C7.6387 152.836 7.57971 152.974 7.59544 153.123L7.6623 153.878C7.69769 154.279 7.5404 154.672 7.2337 154.932C6.92701 155.191 6.51415 155.294 6.12488 155.195L4.77227 154.861C4.64644 154.83 4.51669 154.853 4.4066 154.928C4.2965 155.003 4.22966 155.113 4.21 155.246L4.13922 155.797C4.09204 156.139 3.90723 156.45 3.6202 156.65C3.41573 156.8 3.16802 156.878 2.91244 156.878Z" fill="#191919"/>
<path d="M259.601 28.6558C259.589 28.6558 259.581 28.6558 259.569 28.6558C259.168 28.644 258.822 28.408 258.665 28.0424L258.028 26.5639C257.973 26.4381 257.863 26.4224 257.816 26.4224C257.816 26.4224 257.816 26.4224 257.812 26.4224C257.764 26.4224 257.65 26.4381 257.599 26.5679L256.888 28.3451L256.156 28.0542L256.868 26.2769C257.021 25.8916 257.387 25.6439 257.8 25.636C257.804 25.636 257.808 25.636 257.812 25.636C258.221 25.636 258.586 25.8758 258.747 26.2494L259.384 27.7278C259.436 27.8497 259.546 27.8654 259.593 27.8694C259.636 27.8694 259.746 27.8615 259.805 27.7396L260.265 26.8195C260.419 26.5128 260.713 26.3044 261.052 26.2651C261.394 26.2219 261.728 26.3516 261.948 26.6151L262.707 27.4998C262.79 27.5941 262.892 27.5823 262.931 27.5745C262.97 27.5666 263.069 27.5351 263.104 27.4133L263.564 25.8758C263.666 25.5377 263.93 25.2782 264.276 25.1838C264.618 25.0894 264.98 25.1799 265.235 25.4237L266.722 26.8156C266.808 26.8982 266.91 26.8824 266.95 26.8667C266.989 26.8549 267.079 26.8156 267.107 26.6976L267.398 25.4394C267.48 25.0894 267.728 24.8142 268.07 24.7002C268.412 24.5861 268.778 24.6609 269.049 24.8928L270.115 25.8011C270.209 25.8798 270.308 25.8562 270.347 25.8405C270.386 25.8247 270.477 25.7815 270.496 25.6596L270.697 24.4131C270.756 24.0435 271.015 23.7368 271.369 23.6149C271.727 23.493 272.116 23.5756 272.391 23.8312C272.494 23.9256 272.6 23.8902 272.643 23.8745C272.686 23.8548 272.781 23.7997 272.781 23.6621V22.7656H273.567V23.6621C273.567 24.075 273.335 24.4289 272.958 24.594C272.58 24.7592 272.159 24.6884 271.857 24.4092C271.766 24.3227 271.664 24.3463 271.625 24.362C271.585 24.3738 271.491 24.421 271.471 24.5429L271.271 25.7893C271.212 26.155 270.968 26.4538 270.618 26.5836C270.268 26.7134 269.891 26.6465 269.608 26.4027L268.542 25.4944C268.452 25.4197 268.357 25.4394 268.318 25.4512C268.283 25.463 268.192 25.5062 268.165 25.6203L267.874 26.8785C267.791 27.2363 267.532 27.5155 267.178 27.6256C266.824 27.7317 266.454 27.6452 266.183 27.3936L264.697 26.0017C264.61 25.923 264.516 25.9388 264.476 25.9466C264.437 25.9584 264.347 25.9938 264.315 26.1039L263.855 27.6413C263.749 27.9991 263.454 28.2665 263.092 28.3451C262.727 28.4238 262.349 28.294 262.109 28.0109L261.35 27.1262C261.276 27.0397 261.185 27.0436 261.146 27.0476C261.111 27.0515 261.016 27.0751 260.965 27.1734L260.505 28.0935C260.336 28.4395 259.99 28.6558 259.601 28.6558Z" fill="#191919"/>
<path d="M258.451 22.6781L258.055 23.3574L261.808 25.5464L262.204 24.8671L258.451 22.6781Z" fill="#191919"/>
<path d="M261.983 21.2325L261.602 21.9199L266.479 24.6293L266.861 23.9419L261.983 21.2325Z" fill="#191919"/>
<path d="M266.446 20.7485L266.109 21.459L270.124 23.3633L270.461 22.6528L266.446 20.7485Z" fill="#191919"/>
<path d="M225.856 327.354L225.133 327.047L226.336 324.216C226.627 323.532 227.201 323.025 227.917 322.82C228.632 322.616 229.387 322.746 229.997 323.174L231.247 324.055C231.684 324.362 232.222 324.444 232.729 324.271C233.237 324.102 233.618 323.713 233.783 323.206L233.999 322.533C234.243 321.766 234.853 321.173 235.619 320.941C236.386 320.709 237.224 320.87 237.849 321.369L239.119 322.38C239.555 322.726 240.11 322.832 240.641 322.667C241.171 322.506 241.573 322.105 241.738 321.574L242.064 320.524C242.304 319.753 242.882 319.167 243.653 318.924C244.423 318.676 245.233 318.817 245.878 319.305L247.337 320.41C247.777 320.744 248.332 320.839 248.858 320.666C249.385 320.493 249.775 320.088 249.932 319.557L250.479 317.697C250.718 316.883 251.347 316.262 252.165 316.03C252.979 315.802 253.844 316.006 254.473 316.576L255.645 317.642C256.082 318.039 256.683 318.177 257.249 318C257.816 317.827 258.236 317.378 258.378 316.804C258.586 315.947 259.215 315.283 260.065 315.035C260.91 314.787 261.799 315 262.44 315.609L264.264 317.343L263.721 317.913L261.897 316.179C261.461 315.766 260.859 315.621 260.285 315.79C259.711 315.959 259.282 316.407 259.141 316.993C258.936 317.842 258.315 318.499 257.481 318.755C256.648 319.01 255.763 318.814 255.118 318.224L253.947 317.158C253.522 316.769 252.936 316.631 252.382 316.789C251.827 316.946 251.399 317.367 251.237 317.917L250.691 319.777C250.463 320.548 249.873 321.157 249.11 321.409C248.343 321.66 247.506 321.519 246.865 321.035L245.406 319.93C244.97 319.6 244.419 319.506 243.896 319.671C243.373 319.836 242.98 320.233 242.819 320.756L242.493 321.806C242.253 322.576 241.647 323.178 240.877 323.418C240.106 323.654 239.268 323.497 238.635 322.993L237.365 321.983C236.933 321.637 236.382 321.531 235.851 321.692C235.321 321.853 234.92 322.246 234.751 322.773L234.534 323.445C234.294 324.196 233.728 324.767 232.981 325.018C232.234 325.27 231.44 325.152 230.795 324.696L229.545 323.815C229.132 323.524 228.62 323.438 228.133 323.575C227.649 323.713 227.256 324.059 227.06 324.523L225.856 327.354Z" fill="#191919"/>
<path d="M200.166 307.872H199.379V304.101C199.379 303.582 199.112 303.118 198.668 302.854C198.223 302.591 197.685 302.583 197.232 302.831L195.569 303.747C194.869 304.132 194.04 304.12 193.356 303.711C192.667 303.306 192.259 302.587 192.259 301.789V300.491C192.259 300 192.023 299.559 191.614 299.284C191.205 299.009 190.705 298.962 190.253 299.154L188.118 300.047C187.426 300.338 186.64 300.263 186.018 299.846C185.393 299.429 185.02 298.734 185.02 297.986V297.558C185.02 297.066 184.788 296.63 184.379 296.355C183.97 296.079 183.474 296.028 183.022 296.217L180.978 297.055C180.286 297.338 179.503 297.259 178.886 296.842C178.265 296.425 177.895 295.733 177.895 294.986C177.895 294.491 177.659 294.051 177.246 293.779C176.833 293.504 176.334 293.461 175.882 293.653L174.293 294.326C173.68 294.585 172.992 294.558 172.402 294.255C171.812 293.952 171.387 293.41 171.242 292.761L171.038 291.864C170.939 291.44 170.664 291.086 170.279 290.893C169.889 290.697 169.441 290.685 169.044 290.862L166.221 292.1L165.906 291.381L168.729 290.142C169.343 289.875 170.039 289.89 170.636 290.193C171.234 290.496 171.663 291.043 171.812 291.695L172.017 292.592C172.111 293.012 172.386 293.362 172.768 293.559C173.149 293.756 173.597 293.771 173.994 293.606L175.583 292.934C176.275 292.639 177.061 292.714 177.69 293.13C178.316 293.547 178.689 294.243 178.689 294.994C178.689 295.486 178.921 295.922 179.33 296.197C179.739 296.473 180.231 296.52 180.687 296.335L182.731 295.497C183.423 295.214 184.206 295.293 184.823 295.71C185.444 296.127 185.814 296.819 185.814 297.566V297.994C185.814 298.486 186.05 298.926 186.459 299.201C186.868 299.477 187.367 299.524 187.819 299.331L189.954 298.439C190.646 298.152 191.433 298.226 192.054 298.639C192.679 299.056 193.049 299.752 193.049 300.499V301.797C193.049 302.316 193.316 302.78 193.761 303.043C194.205 303.306 194.744 303.314 195.196 303.067L196.859 302.15C197.559 301.765 198.389 301.777 199.073 302.186C199.761 302.591 200.17 303.31 200.17 304.109V307.872H200.166Z" fill="#191919"/>
<path d="M288.581 187.323C284.948 193.221 275.275 196.312 270.565 189.974C265.331 182.927 269.063 167.943 279.955 167.313C282.44 167.168 284.917 167.982 286.875 169.602C291.845 173.719 292.655 180.71 288.581 187.323Z" fill="#191919"/>
<path d="M276.156 179.516C274.819 183.648 273.285 188.217 271.363 185.874C270.167 184.415 269.44 180.908 270.293 177.573C270.965 174.947 272.845 172.426 274.713 171.105C275.68 170.421 276.659 170.264 277.441 170.68C279.439 171.738 277.654 174.88 276.156 179.516Z" fill="white"/>
<path d="M200.649 64.737C198.632 66.8956 196.363 69.2588 195.431 66.7973C194.853 65.2678 195.125 62.5744 196.58 60.7302C197.724 59.2754 199.776 58.4497 201.534 58.4222C202.446 58.4104 203.236 58.7564 203.748 59.3973C205.037 61.0291 202.91 62.3148 200.649 64.737Z" fill="white"/>
<path d="M68.8638 183.274C68.8913 181.863 68.9464 180.298 70.0277 180.872C70.7 181.23 71.9937 184.065 70.5113 185.799C70.2321 186.125 69.8193 186.227 69.4457 186.16C68.4981 185.995 68.8323 184.855 68.8638 183.274Z" fill="white"/>
<path d="M97.1518 219.956C97.3209 219.59 97.0182 219.232 96.2632 218.953C94.7573 218.399 91.8279 218.001 86.1462 218.395C80.9088 218.756 78.2782 219.861 76.961 220.809C76.2572 221.316 76.3122 221.698 76.9571 221.985C84.8761 223.329 93.0036 222.276 97.1518 219.956Z" fill="#191919"/>
<path d="M234.794 186.283C234.137 183.354 232.332 174.353 232.312 174.263L233.083 174.109C233.103 174.2 234.904 183.188 235.56 186.11L234.794 186.283Z" fill="#191919"/>
<path d="M242.762 187.238C241.952 186.062 241.244 184.497 240.82 182.948C240.67 182.405 240.533 181.879 240.403 181.371C239.738 178.827 239.215 176.814 237.945 175.654L238.476 175.072C239.919 176.389 240.47 178.501 241.166 181.171C241.295 181.674 241.433 182.197 241.582 182.736C241.987 184.206 242.652 185.685 243.415 186.79L242.762 187.238Z" fill="#191919"/>
<path d="M246.499 187.419L245.712 187.395C245.732 186.778 245.673 185.972 245.614 185.119C245.555 184.242 245.484 183.251 245.484 182.292C245.484 180.542 245.917 178.835 246.64 177.719L247.301 178.147C246.656 179.142 246.271 180.687 246.271 182.292C246.271 183.22 246.334 184.159 246.397 185.064C246.46 185.937 246.519 186.762 246.499 187.419Z" fill="#191919"/>
<path d="M271.968 218.694C271.134 218.694 270.312 218.344 269.734 217.672L263.188 210.02L263.785 209.509L270.332 217.161C271.091 218.049 272.439 218.167 273.34 217.42L292.843 199.659C293.912 198.743 295.115 197.977 296.425 197.379L296.751 198.095C295.509 198.661 294.368 199.388 293.362 200.249L273.855 218.014C273.305 218.47 272.632 218.694 271.968 218.694Z" fill="#191919"/>
<path d="M273.271 252.898C269.909 252.898 266.366 251.448 263.307 247.571L255.773 239.231L256.355 238.704L263.909 247.063C269.437 254.066 276.613 252.678 281.076 249.371C284.646 246.725 289.616 242.494 295.848 236.793L296.379 237.375C290.127 243.092 285.134 247.343 281.544 250.005C279.271 251.683 276.346 252.898 273.271 252.898Z" fill="#191919"/>
<path d="M224.312 188.626C223.876 187.859 223.514 187.092 223.141 186.133L223.876 185.85C224.238 186.781 224.572 187.497 224.997 188.236L224.312 188.626Z" fill="#191919"/>
<path d="M228.939 187.249C228.302 186.058 227.107 183.588 226.258 180.451L227.017 180.246C227.842 183.309 229.01 185.716 229.632 186.875L228.939 187.249Z" fill="#191919"/>
<path d="M283.221 198.794C276.863 198.794 271.028 195.322 267.992 189.731L268.684 189.354C271.582 194.689 277.154 198.008 283.221 198.008V198.794Z" fill="#191919"/>
<path d="M176.619 80.4649C175.994 80.4649 175.227 80.1267 174.413 79.474C173.517 78.7584 172.129 77.6378 170.992 76.7255L171.488 76.1121C172.624 77.0283 174.008 78.145 174.905 78.8606C175.742 79.533 176.556 79.8318 176.93 79.6038C177.268 79.3993 177.346 78.7033 177.154 77.6889C176.922 76.4778 176.981 75.5066 177.335 74.7949L178.038 75.1449C177.85 75.5263 177.677 76.2498 177.924 77.5395C178.196 78.955 177.999 79.8751 177.335 80.2761C177.126 80.402 176.882 80.4649 176.619 80.4649Z" fill="#191919"/>
<path d="M205.398 84.7582L204.836 84.2077L215.366 73.4262C219.062 69.6396 225.054 69.4352 229.002 72.9583L228.479 73.5441C224.846 70.3002 219.333 70.4889 215.932 73.9727L205.398 84.7582Z" fill="#191919"/>
<path d="M228.856 86.7293L218.172 97.4648L218.729 98.0196L229.413 87.284L228.856 86.7293Z" fill="#191919"/>
<path d="M59.7668 188.705L57.3683 185.155C56.5229 184.038 55.2686 183.31 53.857 183.126C52.4454 182.945 51.0496 183.326 49.929 184.203L49.4453 183.586C50.735 182.575 52.3353 182.135 53.9593 182.347C55.5832 182.559 57.0184 183.393 58.0092 184.698L60.4195 188.265L59.7668 188.705Z" fill="#191919"/>
<path d="M72.8955 207.733L72.4297 216.891L73.2151 216.931L73.6809 207.773L72.8955 207.733Z" fill="#191919"/>
<path d="M96.5673 196.505L95.8047 196.697L99.6486 211.949L100.411 211.757L96.5673 196.505Z" fill="#191919"/>
<defs>
<linearGradient id="paint0_linear_636_991" x1="155.23" y1="7.08984" x2="155.23" y2="303.956" gradientUnits="userSpaceOnUse">
<stop stop-color="#1EB8CD"/>
<stop offset="1" stop-color="#191919"/>
</linearGradient>
</defs>
</svg>
